<svg aria-hidden="true" style="position: absolute; width: 0; height: 0; overflow: hidden;" version="1.1" xmlns="http://www.w3.org/2000/svg" xmlns:xlink="http://www.w3.org/1999/xlink">
<defs>
<symbol id="icon-Vector-2-1-converted" viewBox="0 0 109 32">
<path d="M88.717 0.384c-1.050 0.532-1.757 1.604-1.757 2.841 0 0.607 0.17 1.174 0.466 1.657l-0.008-0.014c0.141 0.23 2.294 2.109 4.787 4.17l4.531 3.747-94.832 0.182-0.573 0.41c-0.688 0.49-1.331 1.738-1.331 2.582 0 0.938 0.669 2.134 1.504 2.685l0.736 0.486 94.282 0.182-4.422 3.658c-2.435 2.013-4.576 3.92-4.762 4.237-0.442 0.746-0.454 2.070-0.029 2.957 0.656 1.373 2.547 2.096 3.955 1.507 0.374-0.157 4.342-3.312 8.819-7.011 8.605-7.11 8.717-7.222 8.717-8.701 0-1.475-0.115-1.59-8.723-8.701-4.48-3.706-8.429-6.854-8.774-6.995-0.87-0.365-1.683-0.326-2.586 0.122z"></path>
</symbol>
<symbol id="icon-Vector-3" viewBox="0 0 32 32">
<path fill="#a6cc0e" style="fill: var(--color1, #a6cc0e)" d="M29.126 9.828l2.001 1.957-4.325 4.409-5.003-4.876-10.348 10.584 4.987 4.891-4.31 4.424-2.001-1.956-2.446 2.486-3.001-2.919c-0.109 0.102-0.209 0.209-0.301 0.323l-0.005 0.006c-0.103 0.126-0.213 0.239-0.332 0.341l-0.004 0.003c-0.123 0.105-0.251 0.199-0.383 0.283s-0.282 0.126-0.447 0.129c-0.006 0-0.013 0-0.019 0-0.266 0-0.507-0.11-0.68-0.286l-0-0c-0.185-0.174-0.301-0.419-0.302-0.692v-0c-0.002-0.155 0.033-0.299 0.103-0.434 0.071-0.134 0.163-0.264 0.274-0.389 0.11-0.123 0.225-0.235 0.347-0.34l0.005-0.004c0.122-0.105 0.229-0.214 0.321-0.328l-2.986-2.935 2.43-2.501-2.001-1.957 4.326-4.408 5.003 4.876 10.347-10.584-4.987-4.891 4.31-4.424 2.001 1.957 2.446-2.487 3.001 2.919c0.102-0.094 0.205-0.203 0.306-0.328s0.214-0.24 0.336-0.344c0.123-0.105 0.25-0.199 0.383-0.283 0.134-0.084 0.282-0.127 0.447-0.129 0.268-0.003 0.501 0.092 0.699 0.286s0.299 0.424 0.302 0.692c0.002 0.154-0.033 0.299-0.103 0.434-0.080 0.148-0.17 0.276-0.275 0.391l0.001-0.002c-0.11 0.123-0.225 0.235-0.347 0.34l-0.005 0.004c-0.118 0.1-0.223 0.207-0.318 0.323l-0.003 0.004 2.986 2.935-2.43 2.501zM8.706 27.869l-4.58-4.477-1.054 1.079 4.58 4.478 1.055-1.079zM13.657 26.824l-8.598-8.405-1.544 1.594 8.582 8.39 1.56-1.579zM23.123 3.96l4.581 4.478 1.054-1.079-4.58-4.479-1.054 1.079zM28.314 11.816l-8.582-8.391-1.56 1.579 8.598 8.406 1.543-1.594z"></path>
</symbol>
<symbol id="icon-Vector-1-1" viewBox="0 0 25 32">
<path fill="#abd30e" style="fill: var(--color2, #abd30e)" d="M12.387 0c-6.803 0-12.387 5.161-12.387 11.458 0 2.439 0.842 4.713 2.263 6.575l-0.052-0.073 7.931 12.712 0.040 0.049c0.32 0.386 0.636 0.698 1.019 0.933 0.382 0.234 0.872 0.382 1.354 0.338 0.962-0.090 1.521-0.706 2.038-1.355l0.032-0.040 8.749-13.809c0.21-0.351 0.361-0.705 0.491-1.047 0.599-1.359 0.908-2.814 0.908-4.284 0-6.296-5.582-11.457-12.387-11.457zM12.387 1.915c5.679 0 10.323 4.295 10.323 9.543 0 1.225-0.258 2.439-0.76 3.573l-0.010 0.024-0.009 0.025c-0.108 0.29-0.227 0.553-0.362 0.781l-8.654 13.657c-0.382 0.468-0.65 0.578-0.565 0.57 0.044-0.003 0.086 0.029-0.009-0.030-0.091-0.055-0.275-0.218-0.493-0.477l-7.87-12.617-0.028-0.036c-1.186-1.555-1.884-3.437-1.884-5.469 0-5.248 4.645-9.543 10.323-9.543zM12.387 4.921c-3.906 0-7.066 2.92-7.066 6.537s3.16 6.535 7.066 6.535c3.906 0 7.065-2.92 7.065-6.536 0-3.617-3.159-6.537-7.065-6.537zM12.387 6.835c2.816 0 5.001 2.023 5.001 4.623 0 2.598-2.185 4.622-5 4.622s-5.002-2.024-5.002-4.622c0-2.599 2.187-4.625 5.001-4.625z"></path>
</symbol>

</defs>
</svg>
